<svg width="70" height="70" viewBox="0 0 70 70" fill="none" xmlns="http://www.w3.org/2000/svg">
<rect width="70" height="70" fill="#DC0B35"/>
<path d="M22.1723 39.3001C22.0029 38.875 21.761 38.5109 21.4465 38.2134C21.132 37.9159 20.7571 37.6912 20.3216 37.5395C19.8861 37.3878 19.3962 37.333 18.858 37.333H12.9551V50.2037H14.0982V45.5534H18.8519C19.3902 45.5534 19.8801 45.4743 20.3155 45.3226C20.751 45.1708 21.126 44.9462 21.4405 44.6487C21.755 44.3512 21.9969 43.987 22.1663 43.5619C22.3357 43.1371 22.4746 42.5177 22.4746 41.7224C22.4867 40.9697 22.3417 39.7312 22.1723 39.3001ZM20.5393 43.7684C20.0434 44.1751 19.4023 44.3756 18.6039 44.3756H14.0982V38.5168H18.6039C19.4023 38.5168 20.0434 38.6991 20.5393 39.0997C21.0353 39.5066 21.2772 40.6235 21.2772 41.4615C21.2832 42.2931 21.0353 43.3617 20.5393 43.7684Z" fill="white"/>
<path d="M26.2242 20.6314V33.5083H25.0811V20.6314H26.2242Z" fill="white"/>
<path d="M56.0954 37.333V41.6739C56.0954 42.4754 55.8958 43.1189 55.4906 43.6166C55.1095 44.0841 54.5349 44.333 53.779 44.3574H51.015C50.253 44.333 49.6846 44.0841 49.3034 43.6166C48.8982 43.1189 48.6986 42.4754 48.6986 41.6739V37.333H47.5254V41.9533C47.5254 42.4935 47.604 42.9853 47.755 43.4224C47.9063 43.8594 48.1302 44.2358 48.4266 44.5517C48.7229 44.8673 49.0857 45.1101 49.509 45.28C49.8961 45.432 50.3378 45.5168 50.8216 45.529H51.8133V50.1978H52.9867V45.5352H53.9786C54.4625 45.523 54.8979 45.438 55.291 45.2862C55.7143 45.1161 56.0773 44.8733 56.3737 44.5577C56.67 44.242 56.8937 43.8656 57.045 43.4284C57.1962 42.9913 57.2748 42.4995 57.2748 41.9592V37.339H56.0954V37.333Z" fill="white"/>
<path d="M14.6425 22.5741C15.084 22.1188 15.7311 21.8092 16.7291 21.8092H20.7631V20.6314H16.7291C16.1727 20.6435 15.6767 20.7043 15.2292 20.856C14.7393 21.02 14.328 21.2628 13.9833 21.5724C13.6446 21.8821 13.3845 22.2525 13.2152 22.6895C13.0398 23.1206 12.9551 23.6062 12.9551 24.1345V33.5083H14.1284V28.8274H20.0373V27.6496H14.1284V24.5775C14.1345 23.6549 14.2312 22.9992 14.6425 22.5741Z" fill="white"/>
<path d="M26.5991 48.261C27.0405 48.7165 27.6878 49.0259 28.6857 49.0259H32.2358V50.2037H28.6857C28.1292 50.1918 27.6332 50.1067 27.1858 49.955C26.6958 49.791 26.2847 49.548 25.9398 49.2386C25.6012 48.9289 25.3411 48.5585 25.1717 48.1215C24.9964 47.6904 24.9116 47.2046 24.9116 46.6765V37.3087H26.0851V45.4258C26.091 46.3427 26.1877 47.8421 26.5991 48.261Z" fill="white"/>
<path d="M44.4047 39.4397C44.2534 39.0026 44.0297 38.6263 43.7334 38.3106C43.437 37.9947 43.074 37.7519 42.6507 37.582C42.2636 37.4303 41.8222 37.3452 41.3383 37.333H38.2537C37.7699 37.3452 37.3344 37.4303 36.9414 37.582C36.5181 37.7519 36.155 37.9947 35.8587 38.3106C35.5623 38.6263 35.3387 39.0026 35.1874 39.4397C35.0361 39.8767 34.9575 40.3685 34.9575 40.909V50.2037H36.131V45.523H43.4611V50.2037H44.6345V40.909C44.6345 40.3685 44.5559 39.8829 44.4047 39.4397ZM36.131 44.3452V41.164C36.131 40.3625 36.3306 39.719 36.7358 39.2213C37.1167 38.7536 37.6913 38.5049 38.4474 38.4805H41.1328C41.8948 38.5049 42.4632 38.7536 42.8443 39.2213C43.2495 39.719 43.4489 40.3625 43.4489 41.164V44.3452H36.131Z" fill="white"/>
<path d="M41.4471 22.7442C41.2959 22.307 41.0722 21.9306 40.7759 21.6149C40.4795 21.2992 40.1165 21.0564 39.6932 20.8864C39.3061 20.7346 38.8706 20.6496 38.3868 20.6375H32.1089V33.5083H33.2823V21.7788H38.1691C38.9311 21.8031 39.4997 22.052 39.8806 22.5196C40.2859 23.0174 40.4855 23.6609 40.4855 24.4623V33.5021H41.6649V24.2133C41.6708 23.6731 41.5982 23.1813 41.4471 22.7442Z" fill="white"/>
<path d="M56.8575 22.7442C56.7062 22.307 56.4825 21.9306 56.1862 21.6149C55.8899 21.2992 55.5268 21.0564 55.1035 20.8864C54.7164 20.7346 54.281 20.6496 53.7971 20.6375H47.5254V33.5083H48.6986V21.7788H53.5854C54.3474 21.8031 54.916 22.052 55.2972 22.5196C55.7024 23.0174 55.9018 23.6609 55.9018 24.4623V33.5021H57.0812V24.2133C57.0874 23.6731 57.0088 23.1813 56.8575 22.7442Z" fill="white"/>
</svg>
